<svg xmlns="http://www.w3.org/2000/svg" xmlns:xlink="http://www.w3.org/1999/xlink" viewBox="0 0 402.564 512"><defs><style>.a{fill:url(#a);}.b{fill:url(#b);}.c{fill:url(#c);}.d{fill:none;}.e{fill:#030304;}</style><linearGradient id="a" x1="45.336" y1="-120.744" x2="393.883" y2="-393.056" gradientTransform="translate(0 509.276)" gradientUnits="userSpaceOnUse"><stop offset="0" stop-color="#f6a642"/><stop offset="0.09" stop-color="#f5ab4b"/><stop offset="0.24" stop-color="#f3b764"/><stop offset="0.43" stop-color="#f0cb8d"/><stop offset="0.63" stop-color="#ece3be"/><stop offset="0.68" stop-color="#ece3be"/><stop offset="1" stop-color="#ece3be"/></linearGradient><linearGradient id="b" y1="-175.225" x2="354.434" y2="-175.225" gradientTransform="translate(0 509.276)" gradientUnits="userSpaceOnUse"><stop offset="0" stop-color="#de5344"/><stop offset="0.05" stop-color="#e05a44"/><stop offset="0.31" stop-color="#ea7b43"/><stop offset="0.57" stop-color="#f09342"/><stop offset="0.8" stop-color="#f5a142"/><stop offset="1" stop-color="#f6a642"/></linearGradient><linearGradient id="c" x1="168.808" y1="-158.252" x2="396.767" y2="-158.252" gradientTransform="translate(0 509.276)" gradientUnits="userSpaceOnUse"><stop offset="0" stop-color="#f6a642"/><stop offset="0.49" stop-color="#efd19a"/><stop offset="0.72" stop-color="#ece3be"/><stop offset="0.76" stop-color="#ece3be"/><stop offset="1" stop-color="#ece3be"/></linearGradient></defs><path class="a" d="M321.509,45.122a37.5,37.5,0,0,0-38.416,36.45V45.122c0-21.517-25.446-37.924-39.1-37.433-20.141.884-35.762,18.373-35.762,38.514V82.456A37.422,37.422,0,0,0,170.8,45.024h-1.081c-20.042.491-36.352,18.176-36.352,38.317v38.513c0-22.794-19.257-42.443-42.738-39C72.055,85.6,58.6,102.106,58.6,120.872V375.631c0,52.661,66.023,118,129.1,125.07a79.432,79.432,0,0,0,18.078-.1l34.976-4.126A81.912,81.912,0,0,0,275.626,484c51.876-33.8,78.4-83.708,80.859-148.65L357.959,119.4V83.341C357.959,63.2,341.65,45.613,321.509,45.122Z"/><path class="b" d="M177.279,486.848,27.941,337.51C14.776,324.345,5.148,307.839,1.709,289.663a90.8,90.8,0,0,1,175.472-45.489,91.127,91.127,0,0,1,98.151-62.192c41.755,5.306,74.964,39.791,78.7,81.645A90.481,90.481,0,0,1,327.8,336.233h0Z"/><path class="c" d="M365.622,202.811A74.922,74.922,0,0,0,322,270.9v57.476a18.382,18.382,0,0,1-16.211,18.274c-68.873,7.86-126.938,64.844-136.762,133.226a18.642,18.642,0,0,0,15.818,21.221h0a13.793,13.793,0,0,0,2.849.1l57.77-1.965a19.5,19.5,0,0,0,6.288-1.376L299.894,478.3a22.416,22.416,0,0,0,4.519-2.555l35.075-27.608a18.648,18.648,0,0,0,3.832-4.028c33.4-48.338,50.6-52.465,50.6-115.049L396.767,271V223.148C396.767,207.036,380.163,196.13,365.622,202.811Z"/><path class="d" d="M307.459,335.84V270.8a85.2,85.2,0,0,1,33.8-67.791,79.971,79.971,0,0,0-46.276-22.7,80.866,80.866,0,0,0-87.244,55.314L198.108,265.3l-9.628-29.671a80.734,80.734,0,0,0-76.732-55.805,78.239,78.239,0,0,0-15.72,1.572,80.728,80.728,0,0,0-63.567,94.712c2.947,15.523,11,30.26,23.383,42.64L170.5,433.4C193.687,378.873,245.857,339.77,307.459,335.84Z"/><path class="d" d="M302.35,356.57c-53.742,5.895-98.445,42.739-116.13,92.354l11.888,11.888Z"/><path class="d" d="M198.108,208.313c.2-.295.295-.491.491-.786V85.011h0V83.635a27.69,27.69,0,0,0-8.94-18.962,26.763,26.763,0,0,0-19.65-7.074c-14.344.688-26.134,13.362-26.134,28.394v37.335l.1,41.363h-.1A102.416,102.416,0,0,1,198.108,208.313Z"/><path class="d" d="M123.832,160.269l-.1-35.86h0a30.667,30.667,0,0,0-10.415-22.991,25.109,25.109,0,0,0-20.926-5.9c-13.166,2.064-23.187,14.247-23.187,28.394v45.1a99.218,99.218,0,0,1,23.088-7.467A100.337,100.337,0,0,1,123.832,160.269Z"/><path class="d" d="M69.108,360.6v17.586c0,22.7,13.165,49.223,35.173,71.034,16.014,15.916,34.878,27.608,54.036,34.092a153.538,153.538,0,0,1,4.913-28.688Z"/><path class="d" d="M348.232,182.179V86.288c0-15.032-11.691-27.8-26.036-28.394h-1.277A27.276,27.276,0,0,0,293.7,85.109h0v74.767c1.376.1,2.555.295,3.93.393A99.86,99.86,0,0,1,348.232,182.179Z"/><path class="d" d="M307.459,335.84V270.8a85.2,85.2,0,0,1,33.8-67.791,79.971,79.971,0,0,0-46.276-22.7,80.866,80.866,0,0,0-87.244,55.314L198.108,265.3l-9.628-29.671a80.734,80.734,0,0,0-76.732-55.805A81.424,81.424,0,0,0,69.108,192v140L170.6,433.5C193.687,378.873,245.857,339.77,307.459,335.84Z"/><path class="d" d="M32.461,276.105c2.259,12.379,7.958,24.169,16.309,34.681v-100.9A81.118,81.118,0,0,0,32.461,276.105Z"/><path class="d" d="M376.626,212.931a11.369,11.369,0,0,0-8.253-1.867l-20.141,12.772v-.294A65.226,65.226,0,0,0,327.7,270.8v84.887H317.579a129.52,129.52,0,0,0-15.229.884c-53.742,5.895-98.445,42.739-116.13,92.354a142.582,142.582,0,0,0-5.993,22.7,113.1,113.1,0,0,0-1.867,16.5,85.719,85.719,0,0,0,13.166.983h.786v1.474A170.986,170.986,0,0,0,382.325,320.317V223.149A12.037,12.037,0,0,0,376.626,212.931Z"/><path class="d" d="M273.367,85.011h0V46.4a27.324,27.324,0,0,0-28.492-26.036c-14.345.688-26.036,13.46-26.036,28.492V85.109h0v98.74a100.1,100.1,0,0,1,54.626-23.678l-.1-75.16Z"/><path class="e" d="M387.63,195.737a32.589,32.589,0,0,0-19.158-5.109V86.288a49.841,49.841,0,0,0-12.871-33.4,46.712,46.712,0,0,0-32.422-15.326c-.786,0-1.474-.1-2.162-.1A46.81,46.81,0,0,0,293.7,46.1v-.687A47.507,47.507,0,0,0,244.089.026c-24.563,1.08-44.016,21.025-45.293,45.98a47.492,47.492,0,0,0-29.573-8.646A46.524,46.524,0,0,0,136.8,52.687,49.414,49.414,0,0,0,123.93,83.832a47.07,47.07,0,0,0-34.78-8.351c-22.99,3.635-40.282,24.365-40.282,48.338v57.672a101.1,101.1,0,0,0-36.155,98.544c3.733,19.551,13.656,37.825,28.983,53.054l7.271,7.27v37.826c0,28.3,15.032,59.441,41.166,85.378,22.794,22.6,51.089,37.924,78.894,43.525,1.277.294,2.947.687,5.108,1.179h.1A194.465,194.465,0,0,0,211.765,512a191.448,191.448,0,0,0,190.8-191.585V223.149A32.647,32.647,0,0,0,387.63,195.737ZM293.606,85.011h0A27.36,27.36,0,0,1,320.919,57.8H322.2c14.345.688,26.036,13.362,26.036,28.394v95.989a98.956,98.956,0,0,0-50.794-21.91c-1.376-.2-2.555-.294-3.93-.393l.1-74.865Zm-74.866.1h0V48.855c0-15.032,11.692-27.8,26.036-28.394A27.324,27.324,0,0,1,273.268,46.5v38.71h0v75.062a102.192,102.192,0,0,0-54.626,23.678l.1-98.838ZM143.973,86.19c0-15.032,11.692-27.8,26.134-28.394a26.9,26.9,0,0,1,19.65,7.074A27.907,27.907,0,0,1,198.7,83.832v1.375h0V207.724c-.2.294-.3.491-.492.786a101.3,101.3,0,0,0-54.135-43.426h.1l-.1-41.363-.1-37.531ZM69.108,123.917c0-14.049,9.923-26.33,23.186-28.394a25.588,25.588,0,0,1,20.927,5.9,30.667,30.667,0,0,1,10.415,22.991h0l.1,35.86A98.282,98.282,0,0,0,92.1,161.448a104.165,104.165,0,0,0-23.089,7.467l.1-45ZM158.317,483.41c-19.256-6.485-38.022-18.275-54.036-34.093-22.008-21.811-35.173-48.338-35.173-71.034V360.7l94.22,94.22A157.051,157.051,0,0,0,158.317,483.41ZM170.6,433.4,69.108,331.91,55.942,318.745c-2.456-2.457-4.912-5.208-7.074-7.86A78.228,78.228,0,0,1,32.559,276.2a80.515,80.515,0,0,1,16.309-66.22A82.585,82.585,0,0,1,69.108,192a81.424,81.424,0,0,1,42.64-12.183,80.861,80.861,0,0,1,76.732,55.805l9.628,29.671,9.629-29.671a81.009,81.009,0,0,1,87.244-55.314,79.683,79.683,0,0,1,46.276,22.7,85.486,85.486,0,0,0-33.8,67.791V335.84C245.857,339.77,193.687,378.873,170.6,433.4ZM382.325,235.43v84.788a171.144,171.144,0,0,1-62.781,132.734,169.321,169.321,0,0,1-127.232,37.532c-4.716-.59-9.236-1.278-13.952-2.162v-.3a154.316,154.316,0,0,1,1.867-16.5,135.182,135.182,0,0,1,5.993-22.7c17.685-49.714,62.388-86.557,116.13-92.354a130.764,130.764,0,0,1,15.229-.884H327.7V270.7a64.852,64.852,0,0,1,20.534-47.258c1.769-1.67,3.537-3.144,5.4-4.617a64.216,64.216,0,0,1,11.79-6.976,11.031,11.031,0,0,1,3.046-.982,11.374,11.374,0,0,1,8.252,1.866,11.945,11.945,0,0,1,5.6,10.218V235.43Z"/></svg>