<svg xmlns="http://www.w3.org/2000/svg" viewBox="0 0 1125.988 512"><defs><style>.a{fill:none;}.b{fill:#fff;}</style></defs><path class="a" d="M310.845,44.988A37.483,37.483,0,0,0,272.4,81.427V44.988c0-21.519-25.44-37.97-39.117-37.4-20.18.861-35.769,18.363-35.769,38.543V82.383a37.388,37.388,0,0,0-37.4-37.395h-1.052c-20.084.478-36.439,18.171-36.439,38.256v38.543c0-22.763-19.223-42.464-42.751-39.021-18.554,2.773-32.039,19.223-32.039,38.065V375.617c0,52.7,66.087,118.02,129.114,125.1a81.594,81.594,0,0,0,18.076-.095l35-4.113a81.673,81.673,0,0,0,34.908-12.529c51.933-33.761,78.426-83.685,80.912-148.721l1.435-216.051V83.244C347.284,63.159,330.929,45.561,310.845,44.988Z"/><path class="a" d="M354.935,202.794a74.96,74.96,0,0,0-43.612,68.1v57.48a18.334,18.334,0,0,1-16.259,18.268C226.2,354.48,168.054,411.482,158.3,479.865A18.685,18.685,0,0,0,174.079,501.1h0a14.425,14.425,0,0,0,2.869.1l57.767-2.009a20.119,20.119,0,0,0,6.312-1.339l48.107-19.511a18.943,18.943,0,0,0,4.5-2.582l35.1-27.64a19.091,19.091,0,0,0,3.825-4.017c33.379-48.394,50.594-52.506,50.594-115.055l2.869-58.054v-47.82C386.114,207,369.472,196.1,354.935,202.794Z"/><path class="a" d="M296.786,335.83V270.8a85.3,85.3,0,0,1,33.761-67.809,79.71,79.71,0,0,0-46.29-22.667,80.845,80.845,0,0,0-87.224,55.28l-9.66,29.649-9.66-29.649a80.862,80.862,0,0,0-76.8-55.854,79.958,79.958,0,0,0-15.685,1.53,80.794,80.794,0,0,0-63.6,94.78c2.965,15.494,11,30.222,23.432,42.656L159.733,433.383C182.973,378.868,235.193,339.751,296.786,335.83Z"/><path class="a" d="M291.621,356.584c-53.75,5.93-98.51,42.752-116.2,92.389l11.859,11.859Z"/><path class="a" d="M187.373,208.246c.191-.287.287-.478.478-.765V84.965h0V83.626a27.665,27.665,0,0,0-8.894-18.936,27.007,27.007,0,0,0-19.7-7.078c-14.346.67-26.11,13.39-26.11,28.4v37.3l.095,41.412h-.095A101.512,101.512,0,0,1,187.373,208.246Z"/><path class="a" d="M113.06,160.234l-.095-35.865h0a30.52,30.52,0,0,0-10.425-22.954A25.461,25.461,0,0,0,81.6,95.486c-13.2,2.1-23.145,14.25-23.145,28.405v45.142a97.115,97.115,0,0,1,23.049-7.46A95.076,95.076,0,0,1,113.06,160.234Z"/><path class="a" d="M58.354,360.6v17.6c0,22.667,13.2,49.255,35.2,71.061,15.972,15.876,34.908,27.64,54.037,34.143a157.808,157.808,0,0,1,4.877-28.692Z"/><path class="a" d="M337.528,182.136V86.209c0-15.016-11.668-27.832-26.014-28.406h-1.243a27.307,27.307,0,0,0-27.258,27.258h0v74.791c1.339.095,2.583.287,3.922.382A99.587,99.587,0,0,1,337.528,182.136Z"/><path class="a" d="M296.786,335.83V270.8a85.3,85.3,0,0,1,33.761-67.809,79.71,79.71,0,0,0-46.29-22.667,80.845,80.845,0,0,0-87.224,55.28l-9.66,29.649-9.66-29.649a80.862,80.862,0,0,0-76.8-55.854,80.878,80.878,0,0,0-42.656,12.146V331.909L159.733,433.383C182.973,378.868,235.193,339.751,296.786,335.83Z"/><path class="a" d="M21.724,276.055a78.929,78.929,0,0,0,16.354,34.717v-100.9A80.46,80.46,0,0,0,21.724,276.055Z"/><path class="a" d="M365.934,212.837a11.553,11.553,0,0,0-8.225-1.818l-20.181,12.816v-.287A65.014,65.014,0,0,0,316.966,270.8v84.928H306.828a132.533,132.533,0,0,0-15.207.861c-53.75,5.93-98.51,42.752-116.2,92.389a146.109,146.109,0,0,0-6.025,22.667,132.513,132.513,0,0,0-1.913,16.545,87.469,87.469,0,0,0,13.2.957h.765v1.434A171.161,171.161,0,0,0,371.576,320.241V223.07A11.855,11.855,0,0,0,365.934,212.837Z"/><path class="a" d="M262.642,84.965h0V46.327a27.337,27.337,0,0,0-28.5-26.015c-14.346.67-26.014,13.39-26.014,28.406V84.965h0v98.8a100.255,100.255,0,0,1,54.611-23.719V84.965Z"/><path class="b" d="M376.932,195.717a32.066,32.066,0,0,0-19.128-5.069V86.209A49.47,49.47,0,0,0,344.893,52.83a46.474,46.474,0,0,0-32.422-15.3c-.765,0-1.435-.1-2.2-.1a47.41,47.41,0,0,0-27.353,8.608v-.67A47.395,47.395,0,0,0,233.28.037c-24.579,1.052-43.994,21.041-45.333,46a47.031,47.031,0,0,0-61.975,6.7A49.826,49.826,0,0,0,113.06,83.913,45.62,45.62,0,0,0,78.439,75.4C55.485,79.036,38.174,99.79,38.174,123.8v57.672A100.924,100.924,0,0,0,1.926,279.976c3.73,19.511,13.677,37.874,28.979,53.081l7.269,7.268V378.2c0,28.31,15.015,59.488,41.221,85.407,22.762,22.571,51.072,37.969,78.9,43.516,1.244.287,2.965.67,5.069,1.148h.1A192.619,192.619,0,0,0,201.05,512a191.52,191.52,0,0,0,190.9-191.663V223.07A32.683,32.683,0,0,0,376.932,195.717ZM282.918,84.965h0a27.388,27.388,0,0,1,27.353-27.257h1.243c14.346.669,26.014,13.389,26.014,28.405v96.023a99.515,99.515,0,0,0-50.785-21.9c-1.339-.191-2.582-.287-3.921-.382V84.965Zm-74.887.1h0V48.718c0-15.016,11.668-27.832,26.014-28.406a27.336,27.336,0,0,1,28.5,26.015V84.965h0v75.078a101.978,101.978,0,0,0-54.61,23.719v-98.7ZM133.24,86.113c0-15.016,11.669-27.831,26.11-28.4a27.3,27.3,0,0,1,28.6,26.014v1.339h0V207.576c-.192.287-.287.479-.478.766a101.04,101.04,0,0,0-54.133-43.421h.1l-.1-41.413-.1-37.395ZM58.354,123.8c0-14.059,9.947-26.3,23.145-28.4a25.605,25.605,0,0,1,20.945,5.93,30.669,30.669,0,0,1,10.425,22.954h0l.1,35.865a101.329,101.329,0,0,0-54.707,8.607V123.8ZM147.587,483.4c-19.224-6.5-38.065-18.267-54.037-34.143-22-21.806-35.2-48.394-35.2-71.061V360.6l94.206,94.206A163.789,163.789,0,0,0,147.587,483.4Zm12.241-50.02L58.354,331.909l-13.2-13.2c-2.487-2.487-4.878-5.165-7.078-7.843a78.934,78.934,0,0,1-16.354-34.717A80.776,80.776,0,0,1,177.809,235.6l9.66,29.649,9.659-29.649a80.946,80.946,0,0,1,87.224-55.28,79.99,79.99,0,0,1,46.29,22.667A85.3,85.3,0,0,0,296.881,270.8V335.83C235.193,339.751,182.973,378.868,159.828,433.383ZM371.672,235.408v84.833A171.162,171.162,0,0,1,181.539,490.576c-4.686-.573-9.277-1.243-13.964-2.2v-.287a137.031,137.031,0,0,1,1.913-16.546,129.683,129.683,0,0,1,6.026-22.667c17.693-49.733,62.357-86.554,116.2-92.388a133.776,133.776,0,0,1,15.206-.861h10.138V270.7a64.644,64.644,0,0,1,20.563-47.246,62.971,62.971,0,0,1,5.452-4.591,65.774,65.774,0,0,1,11.763-6.982,11.4,11.4,0,0,1,3.061-.956,11.546,11.546,0,0,1,8.225,1.817,12.07,12.07,0,0,1,5.643,10.234l-.1,12.433Z"/><polygon class="b" points="846.623 340.134 796.316 191.796 766.858 191.796 832.468 372.939 860.873 372.939 926.482 191.796 897.025 191.796 846.623 340.134"/><path class="b" d="M686.712,191.8,631.527,344.247l-.382.286.191.287L621.2,372.843h29.457c28.214-34.144,65.8-35.674,89.615-32.231l11,32.231h29.457L715.117,191.8Zm-19.607,132.94,33.761-99.179,30.127,88.276c-23.91-2.2-46.385,3.634-63.888,10.9Z"/><path class="b" d="M985.588,322.727V191.318H957.852v136a45.654,45.654,0,0,0,45.525,45.621h64.271V346.733H1009.4A23.918,23.918,0,0,1,985.588,322.727Z"/><path class="b" d="M517.428,322.727V191.318H489.692v136a45.654,45.654,0,0,0,45.525,45.621h64.271V346.733H541.243a23.98,23.98,0,0,1-23.815-24.006Z"/><rect class="b" x="1099.018" y="191.318" width="26.971" height="181.621"/></svg>